<svg xmlns="http://www.w3.org/2000/svg" fill-rule="evenodd" stroke-linejoin="round" stroke-miterlimit="2" clip-rule="evenodd" viewBox="0 0 64 64" id="instagram"><path fill="none" d="M0 0h64v64H0z"></path><path fill="#dd636e" d="M6 16c0-5.519 4.481-10 10-10h32c5.519 0 10 4.481 10 10v32c0 5.519-4.481 10-10 10H16c-5.519 0-10-4.481-10-10V16Zm4 2c0-4.415 3.585-8 8-8h28c4.415 0 8 3.585 8 8v28c0 4.415-3.585 8-8 8H18c-4.415 0-8-3.585-8-8V18Zm22 0c-7.727 0-14 6.273-14 14s6.273 14 14 14 14-6.273 14-14-6.273-14-14-14Zm0 4c-5.519 0-10 4.481-10 10s4.481 10 10 10 10-4.481 10-10-4.481-10-10-10Zm15-8a3.001 3.001 0 0 0 0 6 3.001 3.001 0 0 0 0-6Z"></path><path fill="#8078bc" d="m28.627 6 4 4H46c4.415 0 8 3.585 8 8v13.373l4 4V16c0-5.519-4.481-10-10-10H28.627Z"></path><path fill="#fcb860" d="M6 28.627V48c0 5.519 4.481 10 10 10h19.373l-4-4H18c-4.415 0-8-3.585-8-8V32.627l-4-4Z"></path><path d="M5.5 16v32c0 5.795 4.705 10.5 10.5 10.5h32c5.795 0 10.5-4.705 10.5-10.5V16c0-5.795-4.705-10.5-10.5-10.5H16C10.205 5.5 5.5 10.205 5.5 16Zm1 0c0-5.243 4.257-9.5 9.5-9.5h32c5.243 0 9.5 4.257 9.5 9.5v32c0 5.243-4.257 9.5-9.5 9.5H16c-5.243 0-9.5-4.257-9.5-9.5V16Zm3 2v28c0 4.691 3.809 8.5 8.5 8.5h28c4.691 0 8.5-3.809 8.5-8.5V18c0-4.691-3.809-8.5-8.5-8.5H18c-4.691 0-8.5 3.809-8.5 8.5Zm1 0c0-4.139 3.361-7.5 7.5-7.5h28c4.139 0 7.5 3.361 7.5 7.5v28c0 4.139-3.361 7.5-7.5 7.5H18a7.504 7.504 0 0 1-7.5-7.5V18Zm21.5-.5c-8.003 0-14.5 6.497-14.5 14.5S23.997 46.5 32 46.5 46.5 40.003 46.5 32 40.003 17.5 32 17.5Zm0 1c7.451 0 13.5 6.049 13.5 13.5S39.451 45.5 32 45.5 18.5 39.451 18.5 32 24.549 18.5 32 18.5Zm0 3c-5.795 0-10.5 4.705-10.5 10.5S26.205 42.5 32 42.5 42.5 37.795 42.5 32 37.795 21.5 32 21.5Zm0 1c5.243 0 9.5 4.257 9.5 9.5s-4.257 9.5-9.5 9.5-9.5-4.257-9.5-9.5 4.257-9.5 9.5-9.5Zm15-9a3.501 3.501 0 0 0-3.5 3.5c0 1.932 1.568 3.5 3.5 3.5s3.5-1.568 3.5-3.5-1.568-3.5-3.5-3.5Zm0 1a2.5 2.5 0 0 1 0 5 2.5 2.5 0 0 1 0-5Z"></path></svg>