<svg xmlns="http://www.w3.org/2000/svg" fill-rule="evenodd" stroke-linejoin="round" stroke-miterlimit="2" clip-rule="evenodd" viewBox="0 0 64 64" id="telegram"><rect width="64" height="64" fill="none"></rect><circle cx="672" cy="112" r="26" fill="#57b7eb" transform="translate(-640 -80)"></circle><path fill="#4891d3" d="M654.646,92.646C650.515,97.249 648,103.333 648,110C648,124.35 659.65,136 674,136C680.667,136 686.751,133.485 691.354,129.354C686.592,134.66 679.683,138 672,138C657.65,138 646,126.35 646,112C646,104.317 649.34,97.408 654.646,92.646Z" transform="translate(-640 -80)"></path><path fill="#f9f6f9" d="M654.699,113.81C654.293,113.688 654.008,113.324 653.987,112.901C653.966,112.479 654.214,112.088 654.605,111.927C661.27,109.183 678.8,101.965 684.314,99.694C684.652,99.555 685.038,99.611 685.323,99.84C685.607,100.069 685.744,100.435 685.68,100.795C684.758,105.958 682.11,120.783 681.264,125.524C681.205,125.853 680.986,126.131 680.679,126.264C680.373,126.398 680.02,126.37 679.738,126.189C676.987,124.42 670.492,120.245 667.999,118.642C667.75,118.482 667.585,118.222 667.548,117.929C667.51,117.637 667.603,117.342 667.802,117.125C670.336,114.361 678,106 678,106C678,106 664.818,114.239 662.384,115.76C662.14,115.913 661.842,115.953 661.566,115.87C660.396,115.519 657.096,114.529 654.699,113.81Z" transform="translate(-640 -80)"></path><path d="M675.146,108.373L662.649,116.184C662.283,116.413 661.836,116.473 661.423,116.349C660.252,115.998 656.952,115.008 654.555,114.289L654.555,114.289C653.947,114.106 653.52,113.56 653.488,112.926C653.457,112.292 653.828,111.707 654.415,111.465C661.08,108.721 678.61,101.502 684.124,99.232C684.63,99.023 685.21,99.107 685.636,99.451C686.063,99.795 686.268,100.343 686.172,100.882C685.25,106.046 682.602,120.871 681.756,125.611C681.668,126.105 681.339,126.522 680.879,126.723C680.419,126.923 679.89,126.881 679.468,126.61C676.716,124.841 670.221,120.665 667.728,119.062C667.356,118.823 667.108,118.432 667.052,117.993C666.995,117.555 667.135,117.113 667.434,116.787L675.146,108.373ZM654.843,113.331C654.64,113.27 654.497,113.088 654.487,112.877C654.476,112.665 654.6,112.47 654.796,112.389C661.46,109.645 678.99,102.427 684.505,100.156C684.674,100.087 684.867,100.115 685.009,100.229C685.151,100.344 685.219,100.527 685.187,100.707C684.265,105.87 681.618,120.695 680.771,125.436C680.742,125.6 680.632,125.739 680.479,125.806C680.326,125.873 680.149,125.859 680.009,125.768C677.257,123.999 670.762,119.824 668.269,118.221C668.145,118.142 668.062,118.011 668.043,117.865C668.024,117.719 668.071,117.572 668.171,117.463C670.704,114.699 678.369,106.338 678.369,106.338C678.538,106.153 678.544,105.873 678.384,105.68C678.225,105.488 677.947,105.443 677.735,105.576C677.735,105.576 664.553,113.815 662.119,115.336C661.997,115.412 661.848,115.432 661.71,115.391L654.843,113.331Z" transform="translate(-640 -80)"></path><path d="M672,85.5C657.374,85.5 645.5,97.374 645.5,112C645.5,126.626 657.374,138.5 672,138.5C686.626,138.5 698.5,126.626 698.5,112C698.5,97.374 686.626,85.5 672,85.5ZM672,86.5C686.074,86.5 697.5,97.926 697.5,112C697.5,126.074 686.074,137.5 672,137.5C657.926,137.5 646.5,126.074 646.5,112C646.5,97.926 657.926,86.5 672,86.5Z" transform="translate(-640 -80)"></path></svg>